<svg width="14" height="14" viewBox="0 0 14 14" fill="none" xmlns="http://www.w3.org/2000/svg">
<path d="M13.532 1.66804C12.4808 0.616839 10.7536 0.616839 9.66479 1.66804C8.91439 2.41924 8.05039 5.23524 7.60079 6.81204C7.18719 5.27204 6.32399 2.41924 5.53519 1.66804C4.48399 0.616839 2.75679 0.616839 1.66879 1.66804C0.617588 2.71924 0.617588 4.44644 1.66879 5.53524C2.41919 6.28564 5.23519 7.14964 6.81199 7.60004C5.27279 8.01284 2.41999 8.87604 1.66799 9.66484C0.617588 10.716 0.617588 12.4432 1.66799 13.532C2.71999 14.5832 4.44639 14.5832 5.53519 13.532C6.28639 12.7808 7.14959 9.96484 7.59999 8.38804C8.01279 9.92804 8.87679 12.7808 9.66479 13.532C10.716 14.5832 12.4432 14.5832 13.532 13.532C14.5832 12.4808 14.5832 10.7536 13.532 9.66484C12.7808 8.91364 9.96559 8.05044 8.38799 7.60004C9.92799 7.18724 12.7808 6.32324 13.532 5.53524C14.5832 4.44724 14.5832 2.71924 13.532 1.66804Z" fill="black" stroke="black"/>
</svg>
